<svg viewBox="0 0 400 400" xmlns="http://www.w3.org/2000/svg">
  <defs>
    <linearGradient id="s-wood" x1="0" y1="0" x2="0" y2="1">
      <stop offset="0%" stop-color="#F0DBAA" />
      <stop offset="100%" stop-color="#DCB878" />
    </linearGradient>
    <linearGradient id="s-dark" x1="0" y1="0" x2="0" y2="1">
      <stop offset="0%" stop-color="#3E3E3E" />
      <stop offset="100%" stop-color="#151515" />
    </linearGradient>
    <linearGradient id="s-cream" x1="0" y1="0" x2="0" y2="1">
      <stop offset="0%" stop-color="#FBF4E3" />
      <stop offset="100%" stop-color="#E9DBB8" />
    </linearGradient>
    <radialGradient id="s-shadow" cx="50%" cy="50%" r="50%">
      <stop offset="0%" stop-color="#000000" stop-opacity="0.18" />
      <stop offset="100%" stop-color="#000000" stop-opacity="0" />
    </radialGradient>
  </defs>

  <ellipse cx="200" cy="362" rx="140" ry="14" fill="url(#s-shadow)" />

  <!-- Hex board -->
  <polygon points="200,20 356,110 356,290 200,380 44,290 44,110" fill="url(#s-wood)" />

  <!-- Honeycomb texture lines -->
  <g fill="none" stroke="#C9A567" stroke-opacity="0.45" stroke-width="2">
    <polygon points="200,60 245,86 245,138 200,164 155,138 155,86" />
    <polygon points="122,138 167,164 167,216 122,242 77,216 77,164" />
    <polygon points="278,138 323,164 323,216 278,242 233,216 233,164" />
    <polygon points="200,216 245,242 245,294 200,320 155,294 155,242" />
    <polygon points="122,294 167,320 167,300 122,300 100,280 100,260" />
    <polygon points="278,294 233,320 233,300 278,300 300,280 300,260" />
  </g>

  <!-- Crenellated pieces: dark cluster lower-left -->
  <g fill="url(#s-dark)">
    <path d="M108,182 L108,162 L112,162 L112,158 L116,158 L116,162 L120,162 L120,158 L124,158 L124,162 L128,162 L128,182 Z" />
    <path d="M128,212 L128,192 L132,192 L132,188 L136,188 L136,192 L140,192 L140,188 L144,188 L144,192 L148,192 L148,212 Z" />
    <path d="M148,177 L148,157 L152,157 L152,153 L156,153 L156,157 L160,157 L160,153 L164,153 L164,157 L168,157 L168,177 Z" />
    <path d="M138,242 L138,222 L142,222 L142,218 L146,218 L146,222 L150,222 L150,218 L154,218 L154,222 L158,222 L158,242 Z" />
    <path d="M168,207 L168,187 L172,187 L172,183 L176,183 L176,187 L180,187 L180,183 L184,183 L184,187 L188,187 L188,207 Z" />
    <path d="M118,252 L118,232 L122,232 L122,228 L126,228 L126,232 L130,232 L130,228 L134,228 L134,232 L138,232 L138,252 Z" />
  </g>

  <!-- Crenellated pieces: cream cluster upper-right -->
  <g fill="url(#s-cream)" stroke="#C9A567" stroke-opacity="0.4" stroke-width="1">
    <path d="M282,152 L282,132 L286,132 L286,128 L290,128 L290,132 L294,132 L294,128 L298,128 L298,132 L302,132 L302,152 Z" />
    <path d="M262,182 L262,162 L266,162 L266,158 L270,158 L270,162 L274,162 L274,158 L278,158 L278,162 L282,162 L282,182 Z" />
    <path d="M242,142 L242,122 L246,122 L246,118 L250,118 L250,122 L254,122 L254,118 L258,118 L258,122 L262,122 L262,142 Z" />
    <path d="M252,212 L252,192 L256,192 L256,188 L260,188 L260,192 L264,192 L264,188 L268,188 L268,192 L272,192 L272,212 Z" />
    <path d="M222,172 L222,152 L226,152 L226,148 L230,148 L230,152 L234,152 L234,148 L238,148 L238,152 L242,152 L242,172 Z" />
    <path d="M272,222 L272,202 L276,202 L276,198 L280,198 L280,202 L284,202 L284,198 L288,198 L288,202 L292,202 L292,222 Z" />
  </g>
</svg>
